<svg xmlns="http://www.w3.org/2000/svg" viewBox="0 0 840.5 203.5"><defs><style>.cls-1{fill:#fff;}.cls-2{fill:#f53024;}</style></defs><g id="Layer_2" data-name="Layer 2"><g id="Layer_1-2" data-name="Layer 1"><rect class="cls-1" x="608" y="-44" width="40" height="129" transform="translate(648.5 -607.5) rotate(90)"/><rect class="cls-1" x="608" y="116" width="40" height="129" transform="translate(808.5 -447.5) rotate(90)"/><rect class="cls-1" x="608" y="36" width="40" height="129" transform="translate(728.5 -527.5) rotate(90)"/><rect class="cls-1" x="756" y="-44" width="40" height="129" transform="translate(796.5 -755.5) rotate(90)"/><rect class="cls-1" x="756" y="116" width="40" height="129" transform="translate(956.5 -595.5) rotate(90)"/><rect class="cls-1" x="756" y="36" width="40" height="129" transform="translate(876.5 -675.5) rotate(90)"/><path class="cls-1" d="M101.5,163.5a61.5,61.5,0,1,1,48.69-99l32.22-23.78a101.48,101.48,0,1,0,19.08,78.77h-41A61.61,61.61,0,0,1,101.5,163.5Z"/><path class="cls-1" d="M101.5,120.5h58.95a61.3,61.3,0,0,0-1.73-40H101.5Z"/><path class="cls-1" d="M200.49,80.5H158.72a61.3,61.3,0,0,1,1.73,40h41a102.13,102.13,0,0,0-1-40Z"/><rect class="cls-1" x="387.5" y="1.5" width="40" height="198"/><rect class="cls-1" x="446" y="22" width="40" height="157" transform="translate(566.5 -365.5) rotate(90)"/><rect class="cls-1" x="504.5" y="1.5" width="40" height="198"/><polygon class="cls-1" points="227.35 199 187.35 199 262.65 0 302.65 0 227.35 199"/><polygon class="cls-1" points="337.81 199 377.81 199 302.5 0 262.5 0 337.81 199"/><circle class="cls-2" cx="282.58" cy="174.5" r="24.5"/></g></g></svg>