<?xml version="1.0" standalone="no"?><svg xmlns="http://www.w3.org/2000/svg" viewBox="0 0 1440 320"><path fill="#f50324" fill-opacity="1" d="M0,128L40,106.7C80,85,160,43,240,53.3C320,64,400,128,480,138.7C560,149,640,107,720,101.3C800,96,880,128,960,160C1040,192,1120,224,1200,224C1280,224,1360,192,1400,176L1440,160L1440,320L1400,320C1360,320,1280,320,1200,320C1120,320,1040,320,960,320C880,320,800,320,720,320C640,320,560,320,480,320C400,320,320,320,240,320C160,320,80,320,40,320L0,320Z"></path></svg>